<svg version="1.0" xmlns="http://www.w3.org/2000/svg"
 width="1200.000000pt" height="1200.000000pt" viewBox="0 0 1200.000000 1200.000000"
 preserveAspectRatio="xMidYMid meet">

<g transform="translate(0.000000,1200.000000) scale(0.100000,-0.100000)"
fill="#000000" stroke="none">
<path d="M5660 11484 c-19 -2 -93 -9 -165 -15 -863 -72 -1755 -381 -2495 -866
-315 -207 -563 -408 -843 -682 -342 -336 -579 -631 -835 -1038 l-92 -148 42
-18 c61 -26 87 -54 103 -112 30 -104 58 -531 90 -1395 18 -478 41 -919 48
-926 8 -8 92 124 156 246 132 252 323 706 469 1110 264 735 369 1329 272 1547
l-19 44 46 21 c33 15 67 21 116 20 119 0 221 -66 283 -182 71 -133 -74 -896
-300 -1575 -263 -788 -569 -1333 -915 -1628 -30 -26 -53 -48 -50 -50 2 -2 45
-37 94 -78 432 -362 872 -597 1238 -664 119 -22 302 -22 392 0 143 35 335 149
413 247 48 59 94 161 100 219 l4 48 -58 -16 c-119 -31 -210 1 -319 111 -85 86
-155 214 -215 393 -148 445 -195 1287 -94 1698 15 62 23 76 69 120 81 78 163
118 256 123 74 4 77 4 112 -28 l37 -32 0 -567 c0 -698 14 -910 71 -1096 52
-171 105 -202 211 -122 117 89 222 353 260 658 10 82 9 118 -5 235 -36 295
-59 617 -77 1079 -5 143 -13 301 -16 352 l-6 91 -231 -114 c-127 -63 -248
-119 -269 -126 -34 -10 -38 -14 -38 -45 0 -45 -27 -71 -124 -119 -170 -83
-287 -47 -332 102 -39 129 8 346 94 437 60 64 195 111 317 111 122 0 181 -48
142 -116 -9 -15 -14 -28 -12 -28 10 0 211 93 316 146 l109 54 0 58 c0 81 -27
441 -46 607 -18 164 -36 256 -66 343 l-22 64 34 29 c127 105 323 146 418 89
64 -39 62 -23 69 -519 3 -248 8 -451 9 -451 21 0 414 242 479 295 27 21 50 32
70 31 44 -1 78 -74 83 -178 4 -70 2 -79 -19 -100 -13 -13 -112 -75 -219 -137
-107 -63 -237 -138 -288 -168 l-92 -54 5 -212 c23 -865 59 -1360 120 -1662 38
-189 87 -295 137 -295 87 0 207 170 257 365 52 202 63 342 38 476 -42 226 -47
565 -11 809 86 595 376 1043 722 1115 143 30 277 -30 393 -178 22 -27 39 -47
39 -45 3 47 33 227 45 266 18 58 67 114 144 163 87 56 177 45 222 -27 20 -32
21 -54 30 -407 16 -687 44 -951 119 -1144 50 -131 100 -173 173 -148 173 59
272 302 313 762 3 39 11 79 17 88 16 21 82 31 111 15 42 -22 46 -47 36 -218
-33 -510 -142 -905 -296 -1072 -80 -85 -195 -142 -305 -148 -67 -4 -84 -1
-133 21 -102 47 -178 124 -246 249 l-29 52 -6 -30 c-62 -270 -148 -485 -250
-629 -86 -121 -222 -231 -348 -282 -200 -81 -397 1 -546 229 l-38 59 -13 -83
c-34 -220 -125 -500 -199 -615 -75 -115 -188 -190 -302 -200 -135 -13 -253
102 -346 336 -8 20 -13 5 -33 -89 -41 -200 -107 -394 -173 -510 -17 -30 -58
-82 -92 -116 l-62 -60 33 -38 c46 -54 110 -187 134 -280 46 -181 9 -340 -104
-451 -101 -98 -388 -224 -590 -260 -115 -20 -378 -20 -511 0 -415 62 -827 267
-1208 599 -47 42 -88 76 -90 76 -6 0 31 -313 63 -532 62 -420 108 -604 216
-854 3 -7 -15 -20 -43 -30 -71 -28 -228 -25 -305 5 -101 40 -196 145 -231 256
-77 244 -124 909 -182 2610 -27 789 -51 1360 -61 1495 l-7 85 -33 -70 c-56
-118 -169 -412 -224 -580 -117 -364 -198 -753 -242 -1175 -18 -169 -18 -851 0
-1020 111 -1059 467 -1976 1086 -2798 300 -398 706 -801 1111 -1102 843 -628
1841 -996 2901 -1071 214 -15 733 -7 929 15 1122 122 2114 540 2975 1256 161
134 546 519 680 680 726 874 1150 1892 1262 3030 17 179 18 830 0 1000 -16
160 -48 390 -71 505 l-17 90 -23 -125 c-67 -354 -188 -671 -307 -800 -79 -85
-215 -150 -314 -150 -19 0 -61 11 -92 24 -142 58 -237 189 -318 436 -94 286
-149 701 -150 1135 l-1 190 -20 -50 c-33 -83 -116 -364 -165 -558 -135 -538
-224 -1166 -224 -1588 0 -131 0 -132 -85 -170 -69 -32 -183 -32 -241 -2 -71
38 -110 92 -141 193 -14 50 -30 87 -33 83 -4 -5 -17 -60 -30 -122 -40 -198
-106 -394 -173 -511 -93 -164 -301 -276 -448 -242 -152 35 -291 203 -384 465
l-32 88 -25 -39 c-83 -125 -216 -247 -373 -343 l-84 -51 -11 -72 c-28 -180
-97 -412 -168 -569 -70 -154 -185 -290 -318 -377 -110 -72 -172 -93 -274 -94
-73 -1 -93 3 -145 27 -84 39 -153 95 -205 163 -24 32 -47 63 -51 67 -4 5 -38
-51 -76 -125 -82 -158 -188 -329 -326 -527 -116 -168 -108 -117 -72 -441 39
-355 49 -528 49 -890 1 -428 -20 -609 -96 -840 -77 -238 -239 -430 -455 -539
-79 -40 -211 -78 -299 -86 -223 -22 -425 114 -549 368 -64 132 -79 204 -79
372 0 122 4 150 26 220 99 309 324 673 797 1290 l161 210 0 55 c0 58 -23 390
-40 575 -39 420 -115 1021 -194 1535 -58 371 -62 359 145 405 63 14 131 26
151 27 42 0 81 -21 98 -53 7 -13 12 -120 14 -297 3 -298 11 -384 76 -867 31
-231 111 -792 123 -865 6 -35 235 318 342 525 70 138 88 203 69 258 -42 121
-81 372 -90 582 -25 569 144 1126 424 1402 123 121 245 184 370 191 80 4 86 3
156 -32 158 -77 276 -242 360 -497 64 -195 106 -473 106 -696 0 -68 2 -123 5
-123 15 0 138 68 191 106 79 56 132 117 177 202 l36 68 -19 115 c-39 243 -54
436 -55 719 0 288 10 415 47 575 19 85 23 93 73 140 81 78 163 118 256 123 74
4 77 4 112 -28 l37 -32 0 -567 c0 -698 14 -910 71 -1096 52 -171 105 -202 211
-122 117 89 222 353 260 660 10 84 10 117 -5 235 -46 365 -66 700 -67 1097 0
121 -5 188 -15 230 l-16 59 43 43 c88 90 218 124 298 78 64 -37 67 -55 79
-405 7 -173 18 -407 26 -520 14 -191 54 -581 60 -588 2 -2 19 68 40 155 98
423 196 778 300 1088 81 246 122 348 206 523 163 341 302 481 486 490 69 4 72
3 109 -31 l38 -35 -12 -453 c-24 -883 -14 -1129 53 -1356 33 -111 94 -141 172
-84 102 74 194 242 268 491 28 95 79 352 76 389 -2 41 -136 429 -206 596 -216
519 -498 984 -865 1425 -134 161 -519 546 -680 680 -861 716 -1848 1133 -2975
1257 -131 14 -804 27 -895 17z m2858 -3385 c57 -12 92 -40 92 -74 0 -13 -17
-44 -40 -69 -51 -60 -59 -92 -66 -266 -4 -91 -11 -153 -19 -166 -7 -11 -52
-40 -100 -64 -177 -90 -295 -57 -341 96 -39 129 8 346 94 437 15 16 52 41 82
57 48 24 77 33 185 54 37 7 64 6 113 -5z m-2726 -1559 c45 -13 81 -54 72 -84
-3 -12 -19 -34 -34 -51 -55 -59 -63 -88 -69 -255 -5 -120 -10 -162 -22 -181
-22 -32 -164 -106 -223 -114 -99 -15 -165 23 -206 117 -55 126 -15 361 79 461
76 83 288 139 403 107z"/>
<path d="M5781 8905 c-173 -76 -308 -310 -356 -620 -23 -147 -17 -384 14 -498
39 -148 115 -256 194 -278 90 -24 229 56 311 179 117 176 170 388 170 672 0
285 -56 458 -173 537 -40 27 -108 30 -160 8z"/>
<path d="M7198 6085 c-245 -62 -423 -465 -405 -918 8 -207 47 -334 129 -424
54 -57 110 -78 169 -63 58 16 95 35 147 77 51 41 53 54 9 46 -40 -6 -86 15
-116 53 -25 32 -29 110 -7 152 30 57 59 73 192 103 70 16 131 32 135 36 17 18
41 187 46 321 9 227 -25 410 -97 522 -56 87 -119 116 -202 95z"/>
<path d="M5499 2553 c-328 -481 -418 -671 -407 -867 6 -97 35 -173 85 -216 28
-25 42 -30 84 -30 167 0 293 208 344 565 9 61 17 142 19 180 9 154 19 565 14
565 -2 0 -65 -89 -139 -197z"/>
</g>
</svg>